<?xml version="1.0" encoding="UTF-8" standalone="no"?>
<!DOCTYPE svg PUBLIC "-//W3C//DTD SVG 1.1//EN" "http://www.w3.org/Graphics/SVG/1.1/DTD/svg11.dtd"
[
<!ATTLIST g
  xmlns:vectornator CDATA #FIXED "http://vectornator.io"
  vectornator:layerName CDATA #IMPLIED >
<!ATTLIST g
  xmlns:vectornator CDATA #FIXED "http://vectornator.io"
  vectornator:mask CDATA #IMPLIED >
<!ATTLIST text
  xmlns:vectornator CDATA #FIXED "http://vectornator.io"
  vectornator:width CDATA #IMPLIED >
<!ATTLIST text
  xmlns:vectornator CDATA #FIXED "http://vectornator.io"
  vectornator:text CDATA #IMPLIED >

<!ATTLIST path
  xmlns:vectornator CDATA #FIXED "http://vectornator.io"
  vectornator:blendMode CDATA #IMPLIED >
<!ATTLIST path
  xmlns:vectornator CDATA #FIXED "http://vectornator.io"
  vectornator:shadowColor CDATA #IMPLIED >
<!ATTLIST path
  xmlns:vectornator CDATA #FIXED "http://vectornator.io"
  vectornator:shadowOpacity CDATA #IMPLIED >
<!ATTLIST path
  xmlns:vectornator CDATA #FIXED "http://vectornator.io"
  vectornator:shadowRadius CDATA #IMPLIED >
<!ATTLIST path
  xmlns:vectornator CDATA #FIXED "http://vectornator.io"
  vectornator:shadowOffset CDATA #IMPLIED >
<!ATTLIST path
  xmlns:vectornator CDATA #FIXED "http://vectornator.io"
  vectornator:shadowAngle CDATA #IMPLIED >

<!ATTLIST image
  xmlns:vectornator CDATA #FIXED "http://vectornator.io"
  vectornator:blendMode CDATA #IMPLIED >
<!ATTLIST image
  xmlns:vectornator CDATA #FIXED "http://vectornator.io"
  vectornator:shadowColor CDATA #IMPLIED >
<!ATTLIST image
  xmlns:vectornator CDATA #FIXED "http://vectornator.io"
  vectornator:shadowOpacity CDATA #IMPLIED >
<!ATTLIST image
  xmlns:vectornator CDATA #FIXED "http://vectornator.io"
  vectornator:shadowRadius CDATA #IMPLIED >
<!ATTLIST image
  xmlns:vectornator CDATA #FIXED "http://vectornator.io"
  vectornator:shadowOffset CDATA #IMPLIED >
<!ATTLIST image
  xmlns:vectornator CDATA #FIXED "http://vectornator.io"
  vectornator:shadowAngle CDATA #IMPLIED >

<!ATTLIST g
  xmlns:vectornator CDATA #FIXED "http://vectornator.io"
  vectornator:blendMode CDATA #IMPLIED >
<!ATTLIST g
  xmlns:vectornator CDATA #FIXED "http://vectornator.io"
  vectornator:shadowColor CDATA #IMPLIED >
<!ATTLIST g
  xmlns:vectornator CDATA #FIXED "http://vectornator.io"
  vectornator:shadowOpacity CDATA #IMPLIED >
<!ATTLIST g
  xmlns:vectornator CDATA #FIXED "http://vectornator.io"
  vectornator:shadowRadius CDATA #IMPLIED >
<!ATTLIST g
  xmlns:vectornator CDATA #FIXED "http://vectornator.io"
  vectornator:shadowOffset CDATA #IMPLIED >
<!ATTLIST g
  xmlns:vectornator CDATA #FIXED "http://vectornator.io"
  vectornator:shadowAngle CDATA #IMPLIED >

<!ENTITY % SVG.filter.extra.content  "| feDropShadow" >
<!ELEMENT feDropShadow EMPTY>
<!ATTLIST feDropShadow
  xmlns:svg CDATA #FIXED "http://www.w3.org/Graphics/SVG/1.1/DTD/svg11.dtd"
  dx CDATA #IMPLIED>
<!ATTLIST feDropShadow
  xmlns:svg CDATA #FIXED "http://www.w3.org/Graphics/SVG/1.1/DTD/svg11.dtd"
  dy CDATA #IMPLIED>
<!ATTLIST feDropShadow
  xmlns:svg CDATA #FIXED "http://www.w3.org/Graphics/SVG/1.1/DTD/svg11.dtd"
  stdDeviation CDATA #IMPLIED>
<!ATTLIST feDropShadow
  xmlns:svg CDATA #FIXED "http://www.w3.org/Graphics/SVG/1.1/DTD/svg11.dtd"
  flood-opacity CDATA #IMPLIED>
<!ATTLIST feDropShadow
  xmlns:svg CDATA #FIXED "http://www.w3.org/Graphics/SVG/1.1/DTD/svg11.dtd"
  in CDATA #IMPLIED>
<!ATTLIST feDropShadow
  xmlns:svg CDATA #FIXED "http://www.w3.org/Graphics/SVG/1.1/DTD/svg11.dtd"
  result CDATA #IMPLIED>
<!ATTLIST feDropShadow
  xmlns:svg CDATA #FIXED "http://www.w3.org/Graphics/SVG/1.1/DTD/svg11.dtd"
  flood-color CDATA #IMPLIED>
]
>
<!-- Created with Vectornator (http://vectornator.io/) -->
<svg height="100%" stroke-miterlimit="10" style="fill-rule:nonzero;clip-rule:evenodd;stroke-linecap:round;stroke-linejoin:round;" version="1.1" viewBox="0 0 1024 1024" width="100%" xml:space="preserve" xmlns="http://www.w3.org/2000/svg" xmlns:vectornator="http://vectornator.io" xmlns:xlink="http://www.w3.org/1999/xlink">
<defs/>
<g id="Layer-1" vectornator:layerName="Layer 1">
<path d="M124.326 507.245C108.31 507.245 96.0382 512.133 87.5102 521.909C78.9822 531.685 74.7182 545.517 74.7182 563.405C74.7182 581.501 79.4502 595.437 88.9142 605.213C98.3782 614.989 111.118 619.877 127.134 619.877C135.662 619.877 142.89 618.733 148.818 616.445C154.746 614.157 160.414 611.557 165.822 608.645C169.358 611.557 172.114 615.041 174.09 619.097C176.066 623.153 177.054 627.885 177.054 633.293C177.054 641.821 172.322 649.049 162.858 654.977C153.394 660.905 138.99 663.869 119.646 663.869C105.71 663.869 92.6062 661.893 80.3342 657.941C68.0621 653.989 57.3502 647.905 48.1982 639.689C39.0462 631.473 31.8182 621.073 26.5142 608.489C21.2102 595.905 18.5582 580.877 18.5582 563.405C18.5582 547.181 21.1062 532.881 26.2022 520.505C31.2982 508.129 38.2662 497.677 47.1062 489.149C55.9462 480.621 66.2941 474.173 78.1502 469.805C90.0062 465.437 102.694 463.253 116.214 463.253C135.35 463.253 150.17 466.373 160.674 472.613C171.178 478.853 176.43 486.861 176.43 496.637C176.43 502.045 175.078 506.725 172.374 510.677C169.67 514.629 166.55 517.749 163.014 520.037C157.606 516.501 151.834 513.485 145.698 510.989C139.562 508.493 132.438 507.245 124.326 507.245Z" fill="#000000" fill-rule="evenodd" opacity="1" stroke="none"/>
<path d="M266.91 624.557C270.446 624.557 274.346 624.193 278.61 623.465C282.874 622.737 286.046 621.749 288.126 620.501L288.126 595.541L265.662 597.413C259.838 597.829 255.054 599.077 251.31 601.157C247.566 603.237 245.694 606.357 245.694 610.517C245.694 614.677 247.306 618.057 250.53 620.657C253.754 623.257 259.214 624.557 266.91 624.557ZM264.414 501.941C275.646 501.941 285.89 503.085 295.146 505.373C304.402 507.661 312.306 511.145 318.858 515.825C325.41 520.505 330.454 526.433 333.99 533.609C337.526 540.785 339.294 549.261 339.294 559.037L339.294 628.925C339.294 634.333 337.786 638.753 334.77 642.185C331.754 645.617 328.166 648.581 324.006 651.077C310.486 659.189 291.454 663.245 266.91 663.245C255.886 663.245 245.954 662.205 237.114 660.125C228.274 658.045 220.682 654.925 214.338 650.765C207.994 646.605 203.106 641.301 199.674 634.853C196.242 628.405 194.526 620.917 194.526 612.389C194.526 598.037 198.79 587.013 207.318 579.317C215.846 571.621 229.054 566.837 246.942 564.965L287.814 560.597L287.814 558.413C287.814 552.381 285.162 548.065 279.858 545.465C274.554 542.865 266.91 541.565 256.926 541.565C249.022 541.565 241.326 542.397 233.838 544.061C226.35 545.725 219.59 547.805 213.558 550.301C210.854 548.429 208.566 545.569 206.694 541.721C204.822 537.873 203.886 533.869 203.886 529.709C203.886 524.301 205.186 519.985 207.786 516.761C210.386 513.537 214.39 510.781 219.798 508.493C225.83 506.205 232.954 504.541 241.17 503.501C249.386 502.461 257.134 501.941 264.414 501.941Z" fill="#000000" fill-rule="evenodd" opacity="1" stroke="none"/>
<path d="M424.782 603.584C424.782 609.237 426.498 613.258 429.93 615.65C433.362 618.041 438.198 619.237 444.438 619.237C447.558 619.237 450.782 618.965 454.11 618.422C457.438 617.878 460.35 617.172 462.846 616.302C464.718 618.693 466.33 621.356 467.682 624.291C469.034 627.226 469.71 630.759 469.71 634.889C469.71 643.15 466.746 649.89 460.818 655.107C454.89 660.325 444.438 662.933 429.462 662.933C411.158 662.933 397.066 658.585 387.186 649.89C377.306 641.194 372.366 627.063 372.366 607.497L372.366 467.93C374.654 467.277 377.93 466.571 382.194 465.81C386.458 465.049 390.982 464.669 395.766 464.669C404.918 464.669 412.042 466.354 417.138 469.723C422.234 473.093 424.782 480.212 424.782 491.082L424.782 511.952L465.654 511.952C466.902 514.344 468.098 517.333 469.242 520.92C470.386 524.507 470.958 528.474 470.958 532.822C470.958 540.431 469.346 545.92 466.122 549.29C462.898 552.659 458.582 554.344 453.174 554.344L424.782 554.344L424.782 603.584Z" fill="#000000" fill-rule="evenodd" opacity="1" stroke="none"/>
<path d="M574.854 663.245C562.582 663.245 551.194 661.529 540.69 658.097C530.186 654.665 521.034 649.517 513.234 642.653C505.434 635.789 499.298 627.157 494.826 616.757C490.354 606.357 488.118 594.189 488.118 580.253C488.118 566.525 490.354 554.721 494.826 544.841C499.298 534.961 505.174 526.849 512.454 520.505C519.734 514.161 528.054 509.481 537.414 506.465C546.774 503.449 556.342 501.941 566.118 501.941C577.142 501.941 587.178 503.605 596.226 506.933C605.274 510.261 613.074 514.837 619.626 520.661C626.178 526.485 631.274 533.453 634.914 541.565C638.554 549.677 640.374 558.517 640.374 568.085C640.374 575.157 638.398 580.565 634.446 584.309C630.494 588.053 624.982 590.445 617.91 591.485L540.846 603.029C543.134 609.893 547.814 615.041 554.886 618.473C561.958 621.905 570.07 623.621 579.222 623.621C587.75 623.621 595.81 622.529 603.402 620.345C610.994 618.161 617.182 615.613 621.966 612.701C625.294 614.781 628.102 617.693 630.39 621.437C632.678 625.181 633.822 629.133 633.822 633.293C633.822 642.653 629.454 649.621 620.718 654.197C614.062 657.733 606.574 660.125 598.254 661.373C589.934 662.621 582.134 663.245 574.854 663.245ZM566.118 540.629C561.126 540.629 556.81 541.461 553.17 543.125C549.53 544.789 546.566 546.921 544.278 549.521C541.99 552.121 540.274 555.033 539.13 558.257C537.986 561.481 537.31 564.757 537.102 568.085L590.454 559.349C589.83 555.189 587.542 551.029 583.59 546.869C579.638 542.709 573.814 540.629 566.118 540.629Z" fill="#000000" fill-rule="evenodd" opacity="1" stroke="none"/>
<path d="M766.422 507.245C750.406 507.245 738.134 512.133 729.606 521.909C721.078 531.685 716.814 545.517 716.814 563.405C716.814 581.501 721.546 595.437 731.01 605.213C740.474 614.989 753.214 619.877 769.23 619.877C777.758 619.877 784.986 618.733 790.914 616.445C796.842 614.157 802.51 611.557 807.918 608.645C811.454 611.557 814.21 615.041 816.186 619.097C818.162 623.153 819.15 627.885 819.15 633.293C819.15 641.821 814.418 649.049 804.954 654.977C795.49 660.905 781.086 663.869 761.742 663.869C747.806 663.869 734.702 661.893 722.43 657.941C710.158 653.989 699.446 647.905 690.294 639.689C681.142 631.473 673.914 621.073 668.61 608.489C663.306 595.905 660.654 580.877 660.654 563.405C660.654 547.181 663.202 532.881 668.298 520.505C673.394 508.129 680.362 497.677 689.202 489.149C698.042 480.621 708.39 474.173 720.246 469.805C732.102 465.437 744.79 463.253 758.31 463.253C777.446 463.253 792.266 466.373 802.77 472.613C813.274 478.853 818.526 486.861 818.526 496.637C818.526 502.045 817.174 506.725 814.47 510.677C811.766 514.629 808.646 517.749 805.11 520.037C799.702 516.501 793.93 513.485 787.794 510.989C781.658 508.493 774.534 507.245 766.422 507.245Z" fill="#000000" fill-rule="evenodd" opacity="1" stroke="none"/>
<path d="M1008.62 563.354C1008.62 579.5 1006.15 593.888 1001.2 606.518C996.255 619.148 989.289 629.76 980.304 638.354C971.32 646.948 960.578 653.458 948.077 657.885C935.577 662.312 921.645 664.526 906.28 664.526C890.916 664.526 876.983 662.182 864.483 657.495C851.983 652.807 841.241 646.101 832.257 637.377C823.272 628.653 816.306 618.041 811.358 605.541C806.41 593.041 803.936 578.979 803.936 563.354C803.936 547.989 806.41 534.057 811.358 521.557C816.306 509.057 823.272 498.445 832.257 489.721C841.241 480.997 851.983 474.291 864.483 469.603C876.983 464.916 890.916 462.572 906.28 462.572C921.645 462.572 935.577 464.981 948.077 469.799C960.578 474.616 971.32 481.387 980.304 490.111C989.289 498.835 996.255 509.447 1001.2 521.947C1006.15 534.447 1008.62 548.249 1008.62 563.354ZM871.905 563.354C871.905 579.239 874.965 591.414 881.085 599.877C887.205 608.341 895.733 612.573 906.671 612.573C917.609 612.573 926.007 608.276 931.866 599.682C937.726 591.088 940.656 578.979 940.656 563.354C940.656 547.729 937.661 535.684 931.671 527.221C925.682 518.757 917.218 514.525 906.28 514.525C895.343 514.525 886.879 518.757 880.89 527.221C874.9 535.684 871.905 547.729 871.905 563.354Z" fill="#000000" fill-rule="evenodd" opacity="1" stroke="none"/>
</g>
</svg>
